{"title":"Redd.Inc.2012.STV.BDRip.XviD-MARGiN","uid":8083883,"size":742671624,"categoryP":"video","categoryS":"movies","magnet":"?xt=urn:btih:e6db99de5f8c56806f05a9af2e5e3d3432ef6694&amp;dn=Redd.Inc.2012.STV.BDRip.XviD-MARGiN&amp;tr=udp%3A%2F%2Ftracker.openbittorrent.com%3A80&amp;tr=udp%3A%2F%2Fopen.demonii.com%3A1337&amp;tr=udp%3A%2F%2Ftracker.coppersurfer.tk%3A6969&amp;tr=udp%3A%2F%2Fexodus.desync.com%3A6969","seeders":1,"leechers":0,"uploader":"Acesn8s","files":-1,"time":1359579060,"description":"Redd.Inc.2012.STV.BDRip.XviD-MARGiN\n\nAKA: Inhuman Resources\n\nFormat                                   : AVI\nFormat/Info                              : Audio Video Interleave\nFile size                                : 8.35 MiB\nDuration                                 : 1mn 0s\nOverall bit rate mode                    : Variable\nOverall bit rate                         : 1 167 Kbps\nWriting application                      : MEncoder Sherpya-SVN-r29355-4.5.0\nWriting library                          : MPlayer\n\nVideo\nID                                       : 0\nFormat                                   : MPEG-4 Visual\nFormat profile                           : Advanced Simple@L5\nFormat settings, BVOP                    : 1\nFormat settings, QPel                    : No\nFormat settings, GMC                     : No warppoints\nFormat settings, Matrix                  : Default (H.263)\nCodec ID                                 : XVID\nCodec ID/Hint                            : XviD\nDuration                                 : 1mn 0s\nBit rate                                 : 1 011 Kbps\nWidth                                    : 640 pixels\nHeight                                   : 352 pixels\nDisplay aspect ratio                     : 16:9\nFrame rate                               : 23.976 fps\nColor space                              : YUV\nChroma subsampling                       : 4:2:0\nBit depth                                : 8 bits\nScan type                                : Progressive\nCompression mode                         : Lossy\nBits/(Pixel*Frame)                       : 0.187\nStream size                              : 7.23 MiB (87%)\nWriting library                          : XviD 64\n\nAudio\nID                                       : 1\nFormat                                   : MPEG Audio\nFormat version                           : Version 1\nFormat profile                           : Layer 3\nMode                                     : Joint stereo\nMode extension                           : MS Stereo\nCodec ID                                 : 55\nCodec ID/Hint                            : MP3\nDuration                                 : 1mn 0s\nBit rate mode                            : Variable\nBit rate                                 : 143 Kbps\nChannel(s)                               : 2 channels\nSampling rate                            : 48.0 KHz\nCompression mode                         : Lossy\nStream size                              : 1.02 MiB (12%)\nAlignment                                : Aligned on interleaves\nInterleave, duration                     : 24 ms (0.58 video frame)\nInterleave, preload duration             : 526 ms\n\nIMDB: www.imdb.com/title/tt1857842\n\nCast: Nicholas Hope, Kelly Paterniti, Sam Reid\n\nPlot: A demented boss works six captives to death.\n\nScreens:\n &lt;a href=&quot;\nhttp://www.shotpix.com/images/50845347665373634304.jpg&quot; rel=&quot;nofollow&quot; target=&quot;_NEW&quot;&gt;\nhttp://www.shotpix.com/images/50845347665373634304.jpg&lt;/a&gt;\n &lt;a href=&quot;\nhttp://www.shotpix.com/images/48298382157255902440.jpg&quot; rel=&quot;nofollow&quot; target=&quot;_NEW&quot;&gt;\nhttp://www.shotpix.com/images/48298382157255902440.jpg&lt;/a&gt;\n &lt;a href=&quot;\nhttp://www.shotpix.com/images/07139608432179260063.jpg&quot; rel=&quot;nofollow&quot; target=&quot;_NEW&quot;&gt;\nhttp://www.shotpix.com/images/07139608432179260063.jpg&lt;/a&gt;\n &lt;a href=&quot;\nhttp://www.shotpix.com/images/50845347665373634304.jpg&quot; rel=&quot;nofollow&quot; target=&quot;_NEW&quot;&gt;\nhttp://www.shotpix.com/images/50845347665373634304.jpg&lt;/a&gt;","torrent":{"xt":"urn:btih:e6db99de5f8c56806f05a9af2e5e3d3432ef6694","amp;dn":"Redd.Inc.2012.STV.BDRip.XviD-MARGiN","amp;tr":["udp%3A%2F%2Ftracker.openbittorrent.com%3A80","udp%3A%2F%2Fopen.demonii.com%3A1337","udp%3A%2F%2Ftracker.coppersurfer.tk%3A6969","udp%3A%2F%2Fexodus.desync.com%3A6969"],"infoHash":"e6db99de5f8c56806f05a9af2e5e3d3432ef6694","infoHashBuffer":{"type":"Buffer","data":[230,219,153,222,95,140,86,128,111,5,169,175,46,94,61,52,50,239,102,148]},"announce":[],"urlList":[]}}